<mxfile host="Electron" modified="2023-12-02T15:33:19.529Z" agent="Mozilla/5.0 (Windows NT 10.0; Win64; x64) AppleWebKit/537.36 (KHTML, like Gecko) draw.io/21.6.8 Chrome/114.0.5735.289 Electron/25.5.0 Safari/537.36" etag="sxgFYfDZ_-Cg4iHuDL3E" version="21.6.8" type="device">
  <diagram name="Página-1" id="JQGINA0_qhhSr2EGn0O8">
    <mxGraphModel dx="1434" dy="836" grid="1" gridSize="10" guides="1" tooltips="1" connect="1" arrows="1" fold="1" page="1" pageScale="1" pageWidth="827" pageHeight="1169" math="0" shadow="0">
      <root>
        <mxCell id="0" />
        <mxCell id="1" parent="0" />
        <mxCell id="4vnYwrqw1YmRSiD-Dk2N-2" style="edgeStyle=orthogonalEdgeStyle;rounded=0;orthogonalLoop=1;jettySize=auto;html=1;endArrow=none;endFill=0;dashed=1;" edge="1" parent="1" source="4vnYwrqw1YmRSiD-Dk2N-3">
          <mxGeometry relative="1" as="geometry">
            <mxPoint x="298" y="700" as="targetPoint" />
          </mxGeometry>
        </mxCell>
        <mxCell id="4vnYwrqw1YmRSiD-Dk2N-3" value=":Proprietário" style="html=1;whiteSpace=wrap;" vertex="1" parent="1">
          <mxGeometry x="244" y="80" width="110" height="50" as="geometry" />
        </mxCell>
        <mxCell id="4vnYwrqw1YmRSiD-Dk2N-4" style="edgeStyle=orthogonalEdgeStyle;rounded=0;orthogonalLoop=1;jettySize=auto;html=1;dashed=1;endArrow=none;endFill=0;" edge="1" parent="1" source="4vnYwrqw1YmRSiD-Dk2N-5">
          <mxGeometry relative="1" as="geometry">
            <mxPoint x="529" y="700" as="targetPoint" />
          </mxGeometry>
        </mxCell>
        <mxCell id="4vnYwrqw1YmRSiD-Dk2N-5" value=":Sistema" style="html=1;whiteSpace=wrap;" vertex="1" parent="1">
          <mxGeometry x="474" y="80" width="110" height="50" as="geometry" />
        </mxCell>
        <mxCell id="4vnYwrqw1YmRSiD-Dk2N-6" value="" style="html=1;points=[[0,0,0,0,5],[0,1,0,0,-5],[1,0,0,0,5],[1,1,0,0,-5]];perimeter=orthogonalPerimeter;outlineConnect=0;targetShapes=umlLifeline;portConstraint=eastwest;newEdgeStyle={&quot;curved&quot;:0,&quot;rounded&quot;:0};" vertex="1" parent="1">
          <mxGeometry x="524" y="190" width="10" height="80" as="geometry" />
        </mxCell>
        <mxCell id="4vnYwrqw1YmRSiD-Dk2N-7" value="1.1 getProjects(ownerId);" style="html=1;verticalAlign=bottom;endArrow=block;curved=0;rounded=0;entryX=0;entryY=0;entryDx=0;entryDy=5;exitX=1;exitY=0;exitDx=0;exitDy=5;exitPerimeter=0;" edge="1" parent="1" source="4vnYwrqw1YmRSiD-Dk2N-9" target="4vnYwrqw1YmRSiD-Dk2N-6">
          <mxGeometry relative="1" as="geometry">
            <mxPoint x="299" y="195" as="sourcePoint" />
            <mxPoint as="offset" />
          </mxGeometry>
        </mxCell>
        <mxCell id="4vnYwrqw1YmRSiD-Dk2N-8" value="1.2 return projects;" style="html=1;verticalAlign=bottom;endArrow=open;endSize=8;curved=0;rounded=0;exitX=0;exitY=1;exitDx=0;exitDy=-5;entryX=1;entryY=1;entryDx=0;entryDy=-5;entryPerimeter=0;" edge="1" parent="1" source="4vnYwrqw1YmRSiD-Dk2N-6" target="4vnYwrqw1YmRSiD-Dk2N-9">
          <mxGeometry relative="1" as="geometry">
            <mxPoint x="299" y="266" as="targetPoint" />
          </mxGeometry>
        </mxCell>
        <mxCell id="4vnYwrqw1YmRSiD-Dk2N-9" value="" style="html=1;points=[[0,0,0,0,5],[0,1,0,0,-5],[1,0,0,0,5],[1,1,0,0,-5]];perimeter=orthogonalPerimeter;outlineConnect=0;targetShapes=umlLifeline;portConstraint=eastwest;newEdgeStyle={&quot;curved&quot;:0,&quot;rounded&quot;:0};" vertex="1" parent="1">
          <mxGeometry x="294" y="190" width="10" height="80" as="geometry" />
        </mxCell>
        <mxCell id="4vnYwrqw1YmRSiD-Dk2N-14" value="" style="html=1;points=[[0,0,0,0,5],[0,1,0,0,-5],[1,0,0,0,5],[1,1,0,0,-5]];perimeter=orthogonalPerimeter;outlineConnect=0;targetShapes=umlLifeline;portConstraint=eastwest;newEdgeStyle={&quot;curved&quot;:0,&quot;rounded&quot;:0};" vertex="1" parent="1">
          <mxGeometry x="524" y="320" width="10" height="80" as="geometry" />
        </mxCell>
        <mxCell id="4vnYwrqw1YmRSiD-Dk2N-15" value="2.1 getStages(projectId);" style="html=1;verticalAlign=bottom;endArrow=block;curved=0;rounded=0;entryX=0;entryY=0;entryDx=0;entryDy=5;exitX=1;exitY=0;exitDx=0;exitDy=5;exitPerimeter=0;" edge="1" parent="1" source="4vnYwrqw1YmRSiD-Dk2N-17" target="4vnYwrqw1YmRSiD-Dk2N-14">
          <mxGeometry relative="1" as="geometry">
            <mxPoint x="299" y="325" as="sourcePoint" />
            <mxPoint as="offset" />
          </mxGeometry>
        </mxCell>
        <mxCell id="4vnYwrqw1YmRSiD-Dk2N-16" value="2.2 return stages;" style="html=1;verticalAlign=bottom;endArrow=open;endSize=8;curved=0;rounded=0;exitX=0;exitY=1;exitDx=0;exitDy=-5;entryX=1;entryY=1;entryDx=0;entryDy=-5;entryPerimeter=0;" edge="1" parent="1" source="4vnYwrqw1YmRSiD-Dk2N-14" target="4vnYwrqw1YmRSiD-Dk2N-17">
          <mxGeometry relative="1" as="geometry">
            <mxPoint x="299" y="396" as="targetPoint" />
          </mxGeometry>
        </mxCell>
        <mxCell id="4vnYwrqw1YmRSiD-Dk2N-17" value="" style="html=1;points=[[0,0,0,0,5],[0,1,0,0,-5],[1,0,0,0,5],[1,1,0,0,-5]];perimeter=orthogonalPerimeter;outlineConnect=0;targetShapes=umlLifeline;portConstraint=eastwest;newEdgeStyle={&quot;curved&quot;:0,&quot;rounded&quot;:0};" vertex="1" parent="1">
          <mxGeometry x="294" y="320" width="10" height="80" as="geometry" />
        </mxCell>
        <mxCell id="4vnYwrqw1YmRSiD-Dk2N-18" value="" style="html=1;points=[[0,0,0,0,5],[0,1,0,0,-5],[1,0,0,0,5],[1,1,0,0,-5]];perimeter=orthogonalPerimeter;outlineConnect=0;targetShapes=umlLifeline;portConstraint=eastwest;newEdgeStyle={&quot;curved&quot;:0,&quot;rounded&quot;:0};" vertex="1" parent="1">
          <mxGeometry x="524" y="450" width="10" height="80" as="geometry" />
        </mxCell>
        <mxCell id="4vnYwrqw1YmRSiD-Dk2N-19" value="3.1 getForm(stageId);" style="html=1;verticalAlign=bottom;endArrow=block;curved=0;rounded=0;entryX=0;entryY=0;entryDx=0;entryDy=5;exitX=1;exitY=0;exitDx=0;exitDy=5;exitPerimeter=0;" edge="1" parent="1" source="4vnYwrqw1YmRSiD-Dk2N-21" target="4vnYwrqw1YmRSiD-Dk2N-18">
          <mxGeometry relative="1" as="geometry">
            <mxPoint x="299" y="455" as="sourcePoint" />
            <mxPoint as="offset" />
          </mxGeometry>
        </mxCell>
        <mxCell id="4vnYwrqw1YmRSiD-Dk2N-20" value="3.2 return form;" style="html=1;verticalAlign=bottom;endArrow=open;endSize=8;curved=0;rounded=0;exitX=0;exitY=1;exitDx=0;exitDy=-5;entryX=1;entryY=1;entryDx=0;entryDy=-5;entryPerimeter=0;" edge="1" parent="1" source="4vnYwrqw1YmRSiD-Dk2N-18" target="4vnYwrqw1YmRSiD-Dk2N-21">
          <mxGeometry relative="1" as="geometry">
            <mxPoint x="299" y="526" as="targetPoint" />
          </mxGeometry>
        </mxCell>
        <mxCell id="4vnYwrqw1YmRSiD-Dk2N-21" value="" style="html=1;points=[[0,0,0,0,5],[0,1,0,0,-5],[1,0,0,0,5],[1,1,0,0,-5]];perimeter=orthogonalPerimeter;outlineConnect=0;targetShapes=umlLifeline;portConstraint=eastwest;newEdgeStyle={&quot;curved&quot;:0,&quot;rounded&quot;:0};" vertex="1" parent="1">
          <mxGeometry x="294" y="450" width="10" height="80" as="geometry" />
        </mxCell>
        <mxCell id="4vnYwrqw1YmRSiD-Dk2N-22" value="" style="html=1;points=[[0,0,0,0,5],[0,1,0,0,-5],[1,0,0,0,5],[1,1,0,0,-5]];perimeter=orthogonalPerimeter;outlineConnect=0;targetShapes=umlLifeline;portConstraint=eastwest;newEdgeStyle={&quot;curved&quot;:0,&quot;rounded&quot;:0};" vertex="1" parent="1">
          <mxGeometry x="524" y="585" width="10" height="20" as="geometry" />
        </mxCell>
        <mxCell id="4vnYwrqw1YmRSiD-Dk2N-23" value="4 setFormField(formId, fieldId, value);" style="html=1;verticalAlign=bottom;endArrow=block;curved=0;rounded=0;" edge="1" parent="1" target="4vnYwrqw1YmRSiD-Dk2N-22">
          <mxGeometry relative="1" as="geometry">
            <mxPoint x="305" y="595" as="sourcePoint" />
            <mxPoint as="offset" />
          </mxGeometry>
        </mxCell>
        <mxCell id="4vnYwrqw1YmRSiD-Dk2N-25" value="" style="html=1;points=[[0,0,0,0,5],[0,1,0,0,-5],[1,0,0,0,5],[1,1,0,0,-5]];perimeter=orthogonalPerimeter;outlineConnect=0;targetShapes=umlLifeline;portConstraint=eastwest;newEdgeStyle={&quot;curved&quot;:0,&quot;rounded&quot;:0};" vertex="1" parent="1">
          <mxGeometry x="294" y="585" width="10" height="20" as="geometry" />
        </mxCell>
        <mxCell id="4vnYwrqw1YmRSiD-Dk2N-28" value="loop" style="shape=umlFrame;whiteSpace=wrap;html=1;pointerEvents=0;" vertex="1" parent="1">
          <mxGeometry x="228" y="550" width="362" height="80" as="geometry" />
        </mxCell>
        <mxCell id="4vnYwrqw1YmRSiD-Dk2N-29" value="" style="html=1;points=[[0,0,0,0,5],[0,1,0,0,-5],[1,0,0,0,5],[1,1,0,0,-5]];perimeter=orthogonalPerimeter;outlineConnect=0;targetShapes=umlLifeline;portConstraint=eastwest;newEdgeStyle={&quot;curved&quot;:0,&quot;rounded&quot;:0};" vertex="1" parent="1">
          <mxGeometry x="524" y="660" width="10" height="20" as="geometry" />
        </mxCell>
        <mxCell id="4vnYwrqw1YmRSiD-Dk2N-30" value="5. sendForm(formId);" style="html=1;verticalAlign=bottom;endArrow=block;curved=0;rounded=0;" edge="1" parent="1" target="4vnYwrqw1YmRSiD-Dk2N-29">
          <mxGeometry relative="1" as="geometry">
            <mxPoint x="305" y="670" as="sourcePoint" />
            <mxPoint as="offset" />
          </mxGeometry>
        </mxCell>
        <mxCell id="4vnYwrqw1YmRSiD-Dk2N-31" value="" style="html=1;points=[[0,0,0,0,5],[0,1,0,0,-5],[1,0,0,0,5],[1,1,0,0,-5]];perimeter=orthogonalPerimeter;outlineConnect=0;targetShapes=umlLifeline;portConstraint=eastwest;newEdgeStyle={&quot;curved&quot;:0,&quot;rounded&quot;:0};" vertex="1" parent="1">
          <mxGeometry x="294" y="660" width="10" height="20" as="geometry" />
        </mxCell>
      </root>
    </mxGraphModel>
  </diagram>
</mxfile>
